<svg width="32" height="32" viewBox="0 0 32 32" fill="none" xmlns="http://www.w3.org/2000/svg">
<path d="M23.3009 12.0147C23.3107 12.0147 23.3207 12.0147 23.3307 12.0147C26.6445 12.0147 29.3307 14.7059 29.3307 18.0257C29.3307 21.1197 26.9974 23.6677 23.9974 24M23.3009 12.0147C23.3206 11.7947 23.3307 11.5719 23.3307 11.3468C23.3307 7.28927 20.0475 4 15.9974 4C12.1617 4 9.01384 6.95023 8.69129 10.7092M23.3009 12.0147C23.1645 13.5301 22.5689 14.9128 21.6545 16.022M8.69129 10.7092C5.30937 11.0316 2.66406 13.8852 2.66406 17.3577C2.66406 20.5889 4.95441 23.2843 7.9974 23.9031M8.69129 10.7092C8.90174 10.6892 9.11504 10.6789 9.33073 10.6789C10.8318 10.6789 12.217 11.1759 13.3314 12.0147" stroke="#777777" stroke-width="1.5" stroke-linecap="round" stroke-linejoin="round"/>
<path d="M15.9974 17.334V28.0007M15.9974 17.334C15.0638 17.334 13.3194 19.9931 12.6641 20.6673M15.9974 17.334C16.931 17.334 18.6754 19.9931 19.3307 20.6673" stroke="#777777" stroke-width="1.5" stroke-linecap="round" stroke-linejoin="round"/>
</svg>
