<svg width="147" height="159" viewBox="0 0 147 159" fill="none" xmlns="http://www.w3.org/2000/svg">
<path d="M136.254 79.481C136.191 79.481 136.128 79.481 136.066 79.4758C122.189 78.3431 112.632 66.5122 112.231 66.0082C111.434 65.0054 111.601 63.5453 112.606 62.7452C113.612 61.9502 115.076 62.1165 115.873 63.1193C115.983 63.2596 124.159 73.3083 135.482 74.7424C139.156 71.1105 142.246 61.5034 141.907 58.5937C141.907 58.5677 141.902 58.5417 141.902 58.5106C141.824 57.5753 141.652 54.3747 142.574 52.4626C143.132 51.3091 144.523 50.8207 145.68 51.3767C146.837 51.9326 147.327 53.3199 146.769 54.4734C146.54 54.9514 146.431 56.6764 146.54 58.1053C147.056 62.8855 142.903 74.9502 137.681 78.9874C137.27 79.3043 136.769 79.4758 136.254 79.4758V79.481Z" fill="#AAAAAA"/>
<path d="M25.8964 66.8874C21.7641 66.8874 10.0655 65.8742 0.591992 55.311C-0.142752 54.4901 -0.200072 53.2639 0.456508 52.3806C4.21881 47.3354 10.8576 35.4213 11.8945 31.54C11.4672 30.8022 10.696 29.7423 9.73721 29.2902C8.99726 28.9421 8.4918 28.2303 8.40842 27.4197L8.03323 23.6164C7.90817 22.3382 8.84093 21.2055 10.1228 21.0808C11.3995 20.9561 12.5407 21.8861 12.6658 23.1643L12.9263 25.809C15.1983 27.4353 16.3343 29.9709 16.475 30.2982C16.6313 30.6671 16.6886 31.0724 16.6469 31.4725C16.1675 35.598 9.46103 47.5276 5.33396 53.56C14.969 63.136 26.4852 62.2631 26.9907 62.2163C28.2621 62.1124 29.3981 63.0476 29.5128 64.3206C29.6274 65.5936 28.6894 66.7211 27.4128 66.8406C27.3033 66.851 26.7718 66.8977 25.9016 66.8977L25.8964 66.8874Z" fill="#AAAAAA"/>
<path d="M100.953 158.997H94.716C93.9864 158.997 93.3038 158.66 92.8609 158.083C92.4231 157.506 92.2772 156.758 92.47 156.057C94.1011 150.216 94.8983 145.467 95.5028 138.022C93.2934 127.656 91.2142 118.168 91.1934 118.07C90.9172 116.817 91.7144 115.581 92.9703 115.305C94.2261 115.03 95.4663 115.825 95.7425 117.077C95.7634 117.176 97.8894 126.877 100.13 137.383C100.177 137.601 100.193 137.824 100.172 138.048C99.6455 144.73 98.9681 149.349 97.7331 154.352H100.953C102.241 154.352 103.283 155.391 103.283 156.675C103.283 157.958 102.241 158.997 100.953 158.997Z" fill="#AAAAAA"/>
<path d="M52.7312 158.999H49.2086C48.5364 158.999 47.8955 158.708 47.4525 158.198C47.0096 157.694 46.8116 157.019 46.9054 156.354C47.5046 152.093 50.5739 144.336 53.8359 136.537C54.998 126.249 55.9516 117.416 55.962 117.328C56.0975 116.055 57.2439 115.125 58.5258 115.27C59.8025 115.405 60.73 116.549 60.5893 117.827C60.5789 117.915 59.6045 126.951 58.4268 137.389C58.4007 137.607 58.3486 137.82 58.26 138.023C55.9464 143.546 53.3149 150.051 52.1111 154.359H52.7364C54.0235 154.359 55.0657 155.398 55.0657 156.681C55.0657 157.965 54.0235 159.004 52.7364 159.004L52.7312 158.999Z" fill="#AAAAAA"/>
<path d="M54.7608 0.463135L27.6326 27.5179C26.2673 57.5031 26.3819 89.0003 27.6326 121.661H117.344C115.567 79.5179 115.401 38.954 117.344 0.468331H54.7608V0.463135Z" fill="white"/>
<path d="M117.344 122.123H27.6266C27.3765 122.123 27.1733 121.926 27.1628 121.676C25.8601 87.7682 25.8601 56.0788 27.1628 27.4964C27.1681 27.3821 27.215 27.273 27.2983 27.1899L54.4318 0.135092C54.5204 0.0467626 54.635 0 54.7601 0H117.344C117.469 0 117.594 0.0519585 117.682 0.145484C117.771 0.239009 117.818 0.363709 117.813 0.488409C115.942 37.5556 115.942 77.1895 117.813 121.64C117.818 121.765 117.771 121.889 117.682 121.983C117.594 122.071 117.474 122.123 117.349 122.123H117.344ZM28.08 121.193H116.859C115.014 77.1011 115.014 37.753 116.859 0.92486H54.9529L28.0852 27.7198C26.7981 56.1047 26.7981 87.55 28.0748 121.198L28.08 121.193Z" fill="#AAAAAA"/>
<path d="M60.0083 56.686C59.9041 54.4258 58.617 52.6332 57.1267 52.6852C55.6363 52.7371 54.516 54.618 54.615 56.8782C54.7192 59.1384 56.0063 60.931 57.4966 60.879C58.987 60.8271 60.1073 58.9462 60.0083 56.686Z" fill="#DDDDE0"/>
<path d="M91.4663 55.979C91.3621 53.7188 90.075 51.9262 88.5847 51.9782C87.0943 52.0301 85.974 53.911 86.073 56.1712C86.1772 58.4314 87.4643 60.224 88.9546 60.172C90.445 60.12 91.5653 58.2391 91.4663 55.979Z" fill="#DDDDE0"/>
<path d="M67.8603 65.9544C76.1092 63.0188 82.4822 66.4688 82.7792 66.6299C83.1023 66.8118 83.217 67.2118 83.0346 67.534C82.8522 67.8509 82.4457 67.9652 82.1227 67.7886C82.0497 67.747 74.6241 63.7566 65.7551 68.3134C65.4268 68.4796 65.0203 68.3549 64.8484 68.0328C64.6764 67.7054 64.8015 67.3054 65.1297 67.1391C66.0573 66.6611 66.9692 66.2714 67.8551 65.9544H67.8603Z" fill="#DDDDE0"/>
<path d="M55.5048 35.4607C55.7289 35.4659 55.9529 35.5282 56.1614 35.6477C56.8023 36.0218 57.016 36.8376 56.6408 37.4715C52.8941 43.7844 46.7191 44.0962 46.4586 44.1066C45.7186 44.1378 45.0933 43.5662 45.0568 42.8336C45.0204 42.101 45.5884 41.4879 46.3231 41.4567C46.5263 41.4463 51.336 41.1501 54.3271 36.1154C54.5825 35.6893 55.041 35.4555 55.5048 35.4659V35.4607Z" fill="#DDDDE0"/>
<path d="M86.9836 34.7025C87.4109 34.6193 87.8695 34.744 88.1978 35.0714C92.3822 39.2436 97.1293 38.3915 97.3274 38.3552C98.0517 38.2149 98.7604 38.6825 98.9063 39.3995C99.0522 40.1165 98.5936 40.8128 97.8745 40.9583C97.614 41.005 91.5432 42.1637 86.301 36.9367C85.7799 36.4171 85.7799 35.5754 86.301 35.061C86.4938 34.8687 86.7335 34.7492 86.9836 34.7025Z" fill="#DDDDE0"/>
<path opacity="0.2" d="M115.993 49.241L112.189 49.5996C110.823 49.7295 109.578 48.8254 109.281 47.49L104.002 23.9113C103.684 22.4876 104.549 21.0692 105.967 20.6951L116.175 18.0244L115.993 49.241Z" fill="#AAAAAA"/>
<path opacity="0.2" d="M57.2616 29.9332C54.6092 22.7109 51.9568 11.1606 54.7603 0.467529L27.6321 27.5171C35.2974 30.0735 47.5223 31.1906 57.2668 29.9332H57.2616Z" fill="#AAAAAA"/>
<path d="M54.7583 27.5179C51.7829 18.7577 52.997 6.84883 54.7583 0.463135L27.6301 27.5179C35.8426 29.0091 45.0191 28.7753 54.7636 27.5179H54.7583Z" fill="white"/>
<path d="M40.0314 29.0139C35.5031 29.0139 31.3604 28.6658 27.5408 27.9748C27.3688 27.9436 27.2333 27.8241 27.1812 27.6578C27.1291 27.4916 27.176 27.3149 27.2959 27.1902L54.4293 0.135429C54.5804 -0.0152509 54.8097 -0.0412302 54.9921 0.0626867C55.1745 0.166604 55.2631 0.384829 55.2057 0.587467C53.5643 6.53151 52.2094 18.5703 55.1953 27.3668C55.2422 27.4967 55.2214 27.6422 55.1484 27.7617C55.0755 27.8812 54.9504 27.9592 54.8149 27.9748C49.458 28.6658 44.5545 29.0087 40.0314 29.0087V29.0139ZM28.5882 27.2162C35.7949 28.406 44.1689 28.38 54.1375 27.133C51.6831 19.3756 52.2407 9.10346 53.8926 1.98515L28.5882 27.211V27.2162Z" fill="#AAAAAA"/>
</svg>
